PathFileType	4	(X/Y/Z)	61_2_89_p0_0-877_filt_butterworth.trc
DataRate	CameraRate	NumFrames	NumMarkers	Units	OrigDataRate	OrigDataStartFrame	OrigNumFrames
60.0	60.0	7	27	m	60.0	109	877
Frame#	Time	RHip			RKnee			RAnkle			RBigToe			RSmallToe			RHeel			LHip			LKnee			LAnkle			LBigToe			LSmallToe			LHeel			Neck			Head			Nose			RShoulder			RElbow			RWrist			RThumb			RIndex			RPinky			LShoulder			LElbow			LWrist			LThumb			LIndex			LPinky			
		X1	Y1	Z1	X2	Y2	Z2	X3	Y3	Z3	X4	Y4	Z4	X5	Y5	Z5	X6	Y6	Z6	X7	Y7	Z7	X8	Y8	Z8	X9	Y9	Z9	X10	Y10	Z10	X11	Y11	Z11	X12	Y12	Z12	X13	Y13	Z13	X14	Y14	Z14	X15	Y15	Z15	X16	Y16	Z16	X17	Y17	Z17	X18	Y18	Z18	X19	Y19	Z19	X20	Y20	Z20	X21	Y21	Z21	X22	Y22	Z22	X23	Y23	Z23	X24	Y24	Z24	X25	Y25	Z25	X26	Y26	Z26	X27	Y27	Z27	
109	1.8166666666666669	0.3484549587152863	0.7199569735835296	0.7768892831870235	0.3405674434282176	0.25742776866512473	0.8413468635804944	0.30938513341017293	-0.1311497025187983	0.7983520787003321	0.3186113837266743	-0.1882990416036344	0.7265980762057498	0.3767188850238734	-0.1705557694558546	0.7422081979143544	0.2869463849280642	-0.15697225282561408	0.8213004809313744	0.12796846071162135	0.6907391217627392	0.7848916180541022	0.10340615550389536	0.25143623949067784	0.8162978109045195	0.10880481985860675	-0.14799399612912184	0.7946313252779237	0.15962653165708007	-0.1643711907241433	0.6775991091756567	0.09095295742878531	-0.18349893783278773	0.7210415124940979	0.1116500959642252	-0.19310581356174236	0.8252251751290363	0.2086324220349971	1.2414882905272717	0.7949732182813161	0.15865584721579162	1.4861011153909642	0.7417765397748859	0.17981917862538377	1.3671972456509351	0.6790334086895411	0.36545489224646954	1.1673157459051873	0.7865153797959312	0.43141045729285055	0.9317923369359263	0.7358301351338499	0.3278462843514724	0.7409071271910598	0.6692507100560942	0.22441770246868734	0.6415737835549027	0.6418858338508591	0.22486205150827324	0.6199184467315387	0.648210246572842	0.258176945031196	0.6151982432341128	0.6726607212964172	0.04770942430433031	1.1499957486861159	0.780289369222938	0.03745934889303924	0.8941254448117155	0.7454951155496362	0.12557386117280506	0.74310034104472	0.6238740547167144	0.2229190798787416	0.7076040099028263	0.5561313819322496	0.21141482646975923	0.6855245150966489	0.5230147365415414	0.17219800950261643	0.6535543442113327	0.5519150879978679	
110	1.8333333333333333	0.34807337563463797	0.7163184269612766	0.7779441488484576	0.3403991758430407	0.253545049108861	0.841845540189746	0.3090117045159174	-0.1309263780289076	0.797789780456386	0.317457773904659	-0.18812426097808127	0.7263891134027584	0.37551004211284744	-0.17275760648086894	0.7442171626359778	0.2873237949207068	-0.15550287849895453	0.8193321896756948	0.125720710416784	0.6873827688590646	0.7871359713157147	0.10286250402005326	0.2485611409606076	0.8165722310668531	0.10902029249911768	-0.1489586584968937	0.7961345193437569	0.15966710230827344	-0.16475813843226061	0.6791105547769445	0.09001209092632477	-0.18458641272720575	0.722440369282222	0.11232197237309842	-0.19195360002999295	0.823598965474401	0.2087652458322232	1.2424902742639026	0.7956218208321729	0.16079734415739294	1.4874051547362799	0.7434078652733405	0.1795817351330104	1.3693476841847612	0.6790283957824848	0.36453693576261526	1.1663830468654275	0.7874754222912856	0.4310495614982284	0.9317737120500317	0.7341749445384042	0.3223105293041109	0.7428607540851662	0.6629778142564717	0.21872153505299669	0.6440047808716123	0.6422147575534678	0.21915351036094738	0.6247876743861986	0.6454199665908968	0.2529073278620257	0.6253521951454759	0.6547501951514345	0.047399987151840156	1.1517112995261614	0.780431188624811	0.03502426936312621	0.8958033926799166	0.7417042739886573	0.1316854261138807	0.7490554583969669	0.6162273724249029	0.23179994034746915	0.7211532467415234	0.5445669634165191	0.2223116774118952	0.6963096493993859	0.5133408252278662	0.18332124136839734	0.6601971452265156	0.5518341065464956	
111	1.85	0.3477054214968054	0.7127349464750714	0.7788000098994119	0.34024910333054725	0.24951473129220963	0.8426242920505925	0.30868298453790305	-0.1306915928635573	0.7972644900339337	0.3164539293755342	-0.1878762943853686	0.72611769089195	0.374703220354775	-0.17408825155089988	0.7444561354713998	0.28774675134298916	-0.15392931895487832	0.8173066368501846	0.1236357112285109	0.6840933557625077	0.7893801212122813	0.10240113346009999	0.24572466347156222	0.8167773938399097	0.1092438330769311	-0.14992618966478674	0.7976862664676223	0.1598773675611163	-0.1653241239732743	0.680617347426003	0.0894990743523706	-0.18527183596151342	0.723275808878623	0.11297721251681359	-0.1911047013098733	0.8224634415403749	0.20881121712017706	1.243673211620724	0.7968033795606433	0.1647859477021341	1.4890166583433544	0.7444598263773538	0.17941102890467311	1.3716184715641746	0.6789983338451495	0.36364644853488415	1.1652963996583077	0.7893428151183326	0.43026332304282666	0.9320633356111432	0.7305677950172693	0.3163864129081956	0.7455698768456938	0.6551911226167906	0.2146634161411551	0.6474146728395767	0.6414140857279802	0.21537291595419933	0.6313860909481791	0.6417101334176911	0.24875282350181413	0.6370629118529729	0.6356292887413795	0.047068576367246484	1.1537470185791754	0.7804899136732016	0.03289679055233907	0.8974510784067558	0.7381426864285019	0.13878334804600267	0.7556744982982081	0.6073525593879496	0.24087642453904862	0.7338333473489623	0.5349142910779229	0.23414828592426978	0.7049003902169139	0.5079314650603642	0.19377666037264601	0.6637781242685078	0.557902416335125	
112	1.8666666666666667	0.34743795349574813	0.709192106849309	0.7793284535601008	0.3400950761325479	0.24536827012093398	0.843495225680736	0.30841773081091395	-0.13050476398855837	0.7969151448230773	0.3157013717835914	-0.18756610367583657	0.7258101393898401	0.3746410680908498	-0.17423678687970617	0.7427352807828574	0.28815301756059886	-0.15251943690804762	0.81553878866772	0.12193120380957206	0.6810353334248579	0.7915462960816482	0.10210613575005104	0.24302862093453065	0.8168423354699654	0.10944500288733357	-0.15077147113942246	0.7990544856906034	0.16021458295633761	-0.16618942279636167	0.6820143948148781	0.0894020409372871	-0.18550289266132386	0.7234689406187779	0.11358381716246864	-0.19065321843103292	0.8219910481402668	0.20866150948685042	1.2448912209023542	0.7982039287046253	0.17047112279563104	1.4908639549659564	0.7450252750945527	0.1795472458555593	1.3736800416747892	0.6790911659845973	0.3628185099787771	1.1642128692520688	0.7918194684820914	0.42903638001482686	0.932599853082817	0.7252970647425439	0.31055827229707755	0.7489783116379043	0.646785635148974	0.21274708768761047	0.6521441596921914	0.6392982090401661	0.21357978294022822	0.6387593344322344	0.6379305504599044	0.2448264929117713	0.6481528550268209	0.6193947201364038	0.04680093803653124	1.1558894487462466	0.7804983700338444	0.031165417539445503	0.8987236080827569	0.7351989002351631	0.1462686938582351	0.7623204567569205	0.5982809021946567	0.24944836436586051	0.7444126710875337	0.5291365659415614	0.24611843577209763	0.7107282476385317	0.5083439023980199	0.2030139538614404	0.6649703862923262	0.567988407252892	
113	1.8833333333333333	0.3472935284434165	0.7056184862128329	0.7795574232003699	0.33993035091034113	0.24126089983231513	0.8441570292012589	0.30822271254305966	-0.13038252028997988	0.7967634611545794	0.31529598509992623	-0.1872270125897381	0.7255022052458724	0.3753620314045053	-0.17328673678643716	0.7396204592120041	0.28847048934185	-0.15149359425194212	0.8142048452711582	0.12064814316942492	0.6782335120002219	0.7934932459413795	0.10196065025195146	0.24041562535887928	0.8166706149091718	0.10962212906201066	-0.15146329834554326	0.8001851284223517	0.1606008193788033	-0.16734713863851947	0.683326325925565	0.08955072415720194	-0.185406836861971	0.7231941179220193	0.11414129035381283	-0.19055718584758588	0.8221082544209268	0.2083760656550422	1.246043138289856	0.7993912948002769	0.17745496461439345	1.4927946415929094	0.745626157766301	0.18026979185917202	1.375484989413092	0.6794089433893548	0.36200643104619507	1.1632848675871519	0.7945079320030384	0.4275371701992605	0.9333215415086175	0.7190846385750252	0.30523242128133327	0.7530775507700036	0.6385171591121663	0.21317197271137056	0.6579966870970351	0.6358270479816105	0.21329387156707644	0.6456609272901501	0.634740254277178	0.24042110321725957	0.6566770158758217	0.6092767166979632	0.04663996115165954	1.157858198690737	0.7805033716590681	0.029894856190085466	0.8993980122228681	0.733198030427977	0.15351302336417968	0.7683368987700803	0.5902707820044077	0.2572445471549392	0.7523606137202465	0.5278584751191407	0.2574806815300011	0.7140242202677568	0.5143799999484056	0.21045238410903314	0.6649143616732333	0.5788799694875282	
114	1.9	0.34720384625560835	0.7019847100801175	0.7796646847866925	0.3397968669121523	0.23745688830448425	0.844300461376065	0.3080998289759529	-0.130316015749433	0.7967291049769942	0.31528160800062954	-0.18689232333351524	0.7252347912677762	0.37652335959809835	-0.1716750691080217	0.7363041279537065	0.288664816767185	-0.15085821016115944	0.8132188321329155	0.11964070454689996	0.6756175440049978	0.7950559180843629	0.10191336517852735	0.23777896231175244	0.8162491152775811	0.10978077699057098	-0.1520318560385976	0.8011311121221599	0.1609610770507698	-0.16861848127114665	0.6844746623323341	0.08970418632430469	-0.1851450836444293	0.7227670723971694	0.11462674551995737	-0.19067503700868305	0.8225816706390982	0.20802199838149193	1.2470116786570804	0.8000825575327029	0.18518614293069702	1.4946190211874153	0.7470441831062195	0.1817001989533663	1.3772806634626662	0.6799461076361104	0.3610715137086945	1.1626060990167646	0.7969581379631867	0.4260247320755297	0.9342006274950767	0.7128571573381416	0.300564154691044	0.7577439513984927	0.6307089743479087	0.21588423702680481	0.664234834044375	0.6307734439077968	0.21368304911299746	0.6508895774219216	0.6325479240859027	0.2353223854977755	0.6615505704215695	0.606537547064735	0.046600321814973214	1.1593656989496357	0.7805292897913576	0.02923593270071393	0.8994399028493311	0.7322691365479372	0.16017002538608288	0.7733159627788567	0.5842698175704717	0.2643923301368722	0.7574299663026041	0.5306683143089804	0.26757055226455045	0.7153117520166793	0.5243233574979829	0.21545870516079524	0.6645187977938694	0.5881017795009159	
115	1.9166666666666667	0.34704293886530446	0.6983704360330781	0.7798211157933936	0.3397492294548136	0.23422587810199672	0.8437289522943827	0.30805723248393374	-0.13028880962954537	0.7967351984272673	0.31555445151682054	-0.18660152229664578	0.7250439225171887	0.37764308911236133	-0.16991455102445913	0.7337847129978228	0.28873846946136567	-0.1504661482970049	0.8123615387317089	0.1187091288648301	0.6731454247125703	0.7962225968693015	0.10193803774503848	0.2351902739543619	0.815649668914518	0.10992290172279547	-0.15250155964377682	0.8019338544545748	0.1612005806094614	-0.16962459633687252	0.6851040364935379	0.0897231374402981	-0.18474846953744156	0.722424311089917	0.1149887168850383	-0.19086111160972458	0.8231699317697262	0.20762634210414693	1.2476725881541708	0.8001788400305991	0.19294769882211113	1.4961269191022952	0.7498571658416238	0.1836980863356963	1.3793119802366707	0.6805700307832083	0.35994222343964927	1.162186934560376	0.7987380086148651	0.4247570240511203	0.9351920697836013	0.7075217874599287	0.29663045313063263	0.7626348315666769	0.6234592531005781	0.22052958287860208	0.6700376688909195	0.6241109875387421	0.21408434860137748	0.6538112223597666	0.6314981012932293	0.22983731811823738	0.6628584365810821	0.6100312272320078	0.04668762300455506	1.1602257310965303	0.7805878946555143	0.029456173716789234	0.8990072690270828	0.7323473706120167	0.16609231753009793	0.7772271979606804	0.5804137576794759	0.27091187094558256	0.759502037926669	0.5363192092817826	0.27572349761140413	0.7150331362745098	0.5356771177833196	0.21767801451690322	0.664273347560015	0.5944438817284775	
